<?xml version="1.0" encoding="UTF-8" standalone="no"?>
<!-- Generator: Adobe Illustrator 19.0.0, SVG Export Plug-In . SVG Version: 6.00 Build 0)  -->

<svg
   xmlns:dc="http://purl.org/dc/elements/1.1/"
   xmlns:cc="http://creativecommons.org/ns#"
   xmlns:rdf="http://www.w3.org/1999/02/22-rdf-syntax-ns#"
   xmlns:svg="http://www.w3.org/2000/svg"
   xmlns="http://www.w3.org/2000/svg"
   xmlns:sodipodi="http://sodipodi.sourceforge.net/DTD/sodipodi-0.dtd"
   xmlns:inkscape="http://www.inkscape.org/namespaces/inkscape"
   version="1.1"
   id="Layer_1"
   x="0px"
   y="0px"
   viewBox="0 0 512 512"
   style="enable-background:new 0 0 512 512;"
   xml:space="preserve"
   sodipodi:docname="gaia_add.svg"
   inkscape:version="0.92.0 r15299"><metadata
     id="metadata135"><rdf:RDF><cc:Work
         rdf:about=""><dc:format>image/svg+xml</dc:format><dc:type
           rdf:resource="http://purl.org/dc/dcmitype/StillImage" /><dc:title></dc:title></cc:Work></rdf:RDF></metadata><defs
     id="defs133" /><sodipodi:namedview
     pagecolor="#ffffff"
     bordercolor="#666666"
     borderopacity="1"
     objecttolerance="10"
     gridtolerance="10"
     guidetolerance="10"
     inkscape:pageopacity="0"
     inkscape:pageshadow="2"
     inkscape:window-width="1920"
     inkscape:window-height="1028"
     id="namedview131"
     showgrid="false"
     inkscape:zoom="1.1890995"
     inkscape:cx="292.53414"
     inkscape:cy="197.90546"
     inkscape:window-x="-8"
     inkscape:window-y="-8"
     inkscape:window-maximized="1"
     inkscape:current-layer="Layer_1"
     showguides="true"
     inkscape:guide-bbox="true"><sodipodi:guide
       position="14.296533,21.024313"
       orientation="0,1"
       id="guide4618"
       inkscape:locked="false" /><sodipodi:guide
       position="207.72021,155.57992"
       orientation="0,1"
       id="guide4620"
       inkscape:locked="false" /><sodipodi:guide
       position="80.069494,253.15956"
       orientation="1,0"
       id="guide4622"
       inkscape:locked="false" /><sodipodi:guide
       position="114.37226,185.01396"
       orientation="1,0"
       id="guide4624"
       inkscape:locked="false" /><sodipodi:guide
       position="97.552813,206.03827"
       orientation="1,0"
       id="guide4626"
       inkscape:locked="false" /></sodipodi:namedview><ellipse
     style="fill:#d0fff0;stroke:#004d7c;stroke-width:4.89589024;stroke-miterlimit:4;stroke-dasharray:none;stroke-opacity:1"
     cx="256.35275"
     cy="255.92979"
     id="circle10"
     rx="253.64174"
     ry="252.54713" /><g
     style="opacity:0.6"
     id="g14"
     transform="matrix(0.98129779,0,0,0.97706291,5.140539,5.8016605)"><path
       style="fill:#ffffff"
       d="m 193,50 c -1.574,0 -3.061,0.31 -4.487,0.759 C 183.998,44.268 176.507,40 168,40 159.493,40 152.002,44.268 147.487,50.759 146.061,50.31 144.574,50 143,50 c -8.284,0 -15,6.716 -15,15 h 80 c 0,-8.284 -6.716,-15 -15,-15 z"
       id="path12"
       inkscape:connector-curvature="0" /></g><g
     style="opacity:0.6"
     id="g18"
     transform="matrix(0.98129779,0,0,0.97706291,5.140539,5.8016605)"><path
       style="fill:#ffffff"
       d="m 304,143.94 c 0,-8.327 6.75,-15.077 15.077,-15.077 1.257,0 2.458,0.199 3.625,0.489 3.934,-4.249 9.512,-6.95 15.759,-6.95 11.895,0 21.538,9.643 21.538,21.538 z"
       id="path16"
       inkscape:connector-curvature="0" /></g><path
     style="fill:#bfe8dc;stroke-width:0.97917801"
     d="m 52.242833,232.48026 c 0,0 86.354207,-54.71553 94.204587,-54.71553 7.85039,0 39.25191,15.63301 39.25191,15.63301 0,0 62.80306,-31.26602 70.65344,-31.26602 7.85038,0 70.65345,39.08252 70.65345,39.08252 v 39.08252 H 52.242833 Z"
     id="path20"
     inkscape:connector-curvature="0" /><path
     style="fill:#64afc7;stroke-width:0.97917801"
     d="m 5.140539,255.92976 c 0,138.14204 112.471451,250.12811 251.212231,250.12811 138.74079,0 251.21224,-111.98607 251.21224,-250.12811 0,-5.25562 -0.21687,-10.45847 -0.53775,-15.633 H 5.6782903 c -0.3208844,5.17453 -0.5377513,10.37738 -0.5377513,15.633 z"
     id="path22"
     inkscape:connector-curvature="0" /><path
     style="fill:#82a5a0;stroke-width:0.97917801"
     d="m 272.70806,392.06688 c -15.04721,-9.11893 -13.08462,-13.51572 -24.20567,-17.42397 -11.12105,-3.90826 -36.59161,-9.48435 -43.83162,-20.35515 -4.98794,-7.49115 -3.31876,-16.74392 7.19585,-17.58713 17.25416,-1.38451 28.21231,-14.98131 42.03192,-19.9487 9.47836,-3.40604 21.37463,-13.10632 11.28493,-18.80846 -9.077,-5.12957 -24.85921,-7.1648 -24.85921,-7.1648 l -4.08809,19.86662 -59.85917,28.33483 0.49066,26.86923 c 0,0 99.60172,50.80727 102.05496,51.29579 1.83013,0.36445 94.01422,19.21102 140.73969,28.76376 8.28314,-7.06611 16.12469,-14.62565 23.42064,-22.69424 -37.06852,-4.0597 -156.78783,-22.9131 -170.37489,-31.14778 z"
     id="path24"
     inkscape:connector-curvature="0" /><path
     style="fill:#64c8d7;stroke-width:0.97917801"
     d="m 467.81362,300.86684 c 7.37151,5.1755 -0.80859,16.29155 -18.79971,16.94325 -27.18096,0.9839 -144.23409,-26.97476 -104.01757,-40.05958 48.98149,-15.93589 122.81728,23.11633 122.81728,23.11633 z"
     id="path26"
     inkscape:connector-curvature="0" /><path
     style="fill:#afd2c8;stroke-width:0.97917801"
     d="M 287.75431,248.11327 H 115.04589 l 13.24752,-19.54126 92.12032,-14.11172 c 2.33647,-0.35761 4.72495,-0.15048 6.96328,0.60479 l 57.4334,19.3693 z"
     id="path28"
     inkscape:connector-curvature="0" /><path
     style="fill:#84d27e;stroke-width:0.97917801"
     d="M 264.85768,250.06739 H 145.13935 l 2.78001,-8.79357 45.1554,-6.23171 c 2.92525,-0.40353 5.88583,-0.49048 8.82972,-0.25891 l 25.31749,1.99027 c 4.98598,0.3918 10.00236,-0.13093 14.79895,-1.5418 l 5.83872,-1.71768 c 5.59732,-1.64636 11.48413,-2.08114 17.26397,-1.27311 l 19.19616,2.68204 z"
     id="path30"
     inkscape:connector-curvature="0" /><path
     style="fill:#96beb4;stroke-width:0.97917801"
     d="m 321.11843,172.55406 c -1.65937,0.28432 -62.6804,77.90708 -55.6072,84.67911 14.6812,14.057 190.10093,37.80354 237.85775,44.04306 2.70838,-14.71457 4.19603,-29.85416 4.19603,-45.34647 0,-64.30734 -24.39311,-122.92916 -64.44379,-167.241898 -9.6442,-2.034246 -24.85431,0.489508 -54.29324,16.774218 -5.74747,3.17936 -38.27062,62.04349 -67.70955,67.09198 z"
     id="path32"
     inkscape:connector-curvature="0" /><path
     style="fill:#82a5a0;stroke-width:0.97917801"
     d="M 453.02938,294.43093 437.89287,151.87256 c 0,0 -37.77997,31.26602 -38.27062,34.68573 -0.49065,3.41973 -6.86908,26.86924 -10.79427,28.82336 -3.9252,1.95414 -30.42023,12.70183 -30.42023,17.09861 0,4.39678 -0.65355,26.70605 -3.9252,29.96359 -3.18921,3.17545 -28.08964,3.27511 -37.2216,9.91328 39.63069,7.96794 94.00047,16.18308 135.76843,22.0738 z"
     id="path34"
     inkscape:connector-curvature="0" /><path
     style="fill:#6eaa64;stroke-width:0.97917801"
     d="M 176.6812,207.23979 165.92226,244.73458 152.31165,197.306 142.67433,230.89252 126.63502,174.99671 108.92456,236.71484 83.31759,147.47578 64.462935,213.18326 45.373749,146.66189 33.212525,189.042 24.64187,159.17513 C 12.09009,188.9394 5.140539,221.62508 5.140539,255.92976 c 0,15.86653 1.5504506,31.3647 4.3864012,46.41049 H 203.97012 Z"
     id="path36"
     inkscape:connector-curvature="0" /><path
     style="fill:#73be6e;stroke-width:0.97917801"
     d="M 436.31395,430.36676 C 304.76412,436.03471 131.81234,369.97352 185.37257,334.42017 208.92371,318.78716 266.05683,312.48999 248.50239,295.01229 232.80163,279.37928 111.1207,242.25088 5.8529613,238.0163 5.4310032,243.94023 5.140539,249.89933 5.140539,255.92976 c 0,138.14204 112.471451,250.12811 251.212231,250.12811 70.58279,0 134.32691,-29.02463 179.96118,-75.69111 z"
     id="path38"
     inkscape:connector-curvature="0" /><path
     style="fill:#84d27e;stroke-width:0.97917801"
     d="m 217.10086,304.29438 c 0,11.08087 -33.15511,19.98289 -32.77436,42.33027 0.47004,-4.37919 3.30108,-8.59815 9.22322,-12.52985 23.55114,-15.63301 72.50711,-21.60481 54.95267,-39.08251 C 232.80163,279.37928 111.1207,242.25088 5.8529613,238.0163 5.4310032,243.94023 5.140539,249.89933 5.140539,255.92976 c 0,1.36496 0.081447,2.7094 0.1030363,4.06947 C 111.77523,265.0487 217.10086,287.19578 217.10086,304.29438 Z"
     id="path40"
     inkscape:connector-curvature="0" /><g
     id="g46"
     transform="matrix(0.98129779,0,0,0.97706291,5.140539,5.8016605)"><path
       style="fill:#6eaa64"
       d="m 256,512 c 71.928,0 136.887,-29.706 183.391,-77.468 C 383.744,433.267 215.511,424.377 98.667,355.333 69.333,338 40,305.333 3.574,298.48 23.818,419.637 129.095,512 256,512 Z"
       id="path42"
       inkscape:connector-curvature="0" /><polygon
       style="fill:#6eaa64"
       points="76.357,258.979 129.476,258.979 102.917,166.021 "
       id="polygon44" /></g><polygon
     style="fill:#73be6e"
     points="102.917,166.021 96.277,189.26 116.196,258.979 129.476,258.979 "
     id="polygon48"
     transform="matrix(0.98129779,0,0,0.97706291,5.140539,5.8016605)" /><polygon
     style="fill:#6eaa64"
     points="25.857,275.667 97.476,275.667 61.667,150.333 "
     id="polygon50"
     transform="matrix(0.98129779,0,0,0.97706291,5.140539,5.8016605)" /><polygon
     style="fill:#73be6e"
     points="61.667,150.333 52.714,181.667 79.571,275.667 97.476,275.667 "
     id="polygon52"
     transform="matrix(0.98129779,0,0,0.97706291,5.140539,5.8016605)" /><path
     style="fill:#afd2c8;stroke-width:0.97917801"
     d="m 385.55731,104.48501 c -2.36296,1.17639 -29.60281,21.00686 -33.03735,24.91511 -3.43455,3.90825 -0.9813,9.2821 -3.43455,14.65595 -1.68979,3.70209 -13.85592,17.60276 -21.26374,25.89412 -4.21958,-1.97367 -8.11042,-3.30444 -9.97489,-2.60779 -5.23326,1.95413 -73.27056,89.23809 -70.65344,90.54149 2.61712,1.30242 31.7283,6.83944 35.6535,4.88532 3.92518,-1.95413 22.56985,-43.96783 27.47633,-42.99078 4.90649,0.97707 0.9813,37.1284 11.77558,28.33484 9.12802,-7.43643 18.11574,-51.66417 21.31575,-64.99814 3.70734,-15.44639 16.05697,-35.50549 25.45879,-46.06167 15.37399,-17.26178 39.95549,-40.126027 40.88773,-41.362012 1.47293,-1.954126 -19.95175,6.676272 -24.20371,8.793562 z"
     id="path54"
     inkscape:connector-curvature="0" /><path
     style="fill:#bee1eb;stroke-width:0.97917801"
     d="M 480.91885,143.75611 C 472.90459,127.89056 463.21722,113.01575 452.13542,99.301696 L 384.89297,284.25776 c 0.0196,0.003 0.0363,0.006 0.0559,0.009 3.41099,0.54325 6.82493,1.07966 10.23493,1.61021 0.10206,0.0156 0.20313,0.0312 0.30421,0.0469 3.33249,0.51883 6.6581,1.03081 9.969,1.53595 0.16093,0.0244 0.32187,0.0488 0.4828,0.0733 3.20982,0.4895 6.40689,0.97315 9.58138,1.448 0.28949,0.043 0.57701,0.086 0.8665,0.12898 2.98903,0.44749 5.95353,0.88717 8.8935,1.32099 0.46906,0.0694 0.93812,0.13776 1.40423,0.20615 2.80652,0.41232 5.5826,0.81683 8.32926,1.21547 0.50831,0.0742 1.02153,0.14851 1.52788,0.22179 2.66815,0.38595 5.29509,0.76309 7.89258,1.13438 0.52892,0.0752 1.06765,0.1534 1.5946,0.22765 2.5818,0.36835 5.11355,0.72693 7.60997,1.07867 0.52401,0.0742 1.06275,0.15048 1.58186,0.22375 2.64656,0.37226 5.23522,0.73378 7.76598,1.08552 0.20314,0.0284 0.41608,0.0586 0.61724,0.086 z"
     id="path56"
     inkscape:connector-curvature="0" /><path
     style="fill:#ffffff;stroke-width:0.97917801"
     d="m 468.43184,121.95685 c -4.17935,-6.52873 -8.68842,-12.82199 -13.43691,-18.92375 -5.4992,19.28038 -19.33255,68.40906 -17.75561,69.19462 1.9626,0.97706 13.73719,-28.00849 13.73719,-28.00849 l -14.06495,86.63226 z"
     id="path58"
     inkscape:connector-curvature="0" /><path
     style="fill:#a7dae6;stroke-width:0.97917801"
     d="m 476.76894,136.06564 -34.89397,156.77659 c 0.84883,0.12213 1.71728,0.24719 2.55825,0.36738 0.52892,0.0752 1.06765,0.15339 1.5946,0.22765 2.58179,0.36835 5.11355,0.72693 7.60997,1.07867 0.52401,0.0742 1.06275,0.15047 1.58185,0.22375 2.64656,0.37226 5.23522,0.73378 7.76599,1.08552 0.20313,0.0284 0.41607,0.0586 0.61724,0.086 l 17.315,-152.15605 c -1.31494,-2.60387 -2.7447,-5.13837 -4.14893,-7.68949 z"
     id="path60"
     inkscape:connector-curvature="0" /><g
     id="g68"
     transform="matrix(0.98129779,0,0,0.97706291,5.140539,5.8016605)"><path
       style="fill:#91d4e1"
       d="m 416.333,282 c 0,0 24.667,-96.833 22.667,-98.333 -2,-1.5 -37.667,94.667 -37.667,94.667 z"
       id="path62"
       inkscape:connector-curvature="0" /><path
       style="fill:#91d4e1"
       d="m 438,287 35.357,-166.087 c -0.692,-1.109 -1.333,-2.252 -2.042,-3.349 C 456.76,166.787 420,286 420,286 Z"
       id="path64"
       inkscape:connector-curvature="0" /><path
       style="fill:#91d4e1"
       d="m 453.334,294.667 28.738,-158.636 c -1.047,-1.964 -2.064,-3.946 -3.16,-5.879 C 466.942,177.227 433.75,292.5 433.75,292.5 Z"
       id="path66"
       inkscape:connector-curvature="0" /></g><path
     style="fill:#ffffff;stroke-width:0.97917801"
     d="m 452.12168,302.82879 -86.84485,-15.63301 c 0,0 3.59842,-10.58452 16.19142,-8.6304 0,0 7.5236,-8.79357 17.00883,-4.55995 0,0 13.73817,-7.97968 19.78983,2.44266 0,0 9.48621,-6.51408 15.21011,1.30242 0,0 24.85922,3.09436 18.64466,25.07828 z"
     id="path70"
     inkscape:connector-curvature="0" /><path
     style="fill:#afd2c8;stroke-width:0.97917801"
     d="m 506.57978,234.43438 c 0,0 -15.98632,-0.6771 -21.25687,0 -10.14072,1.30243 -18.64563,6.18774 -25.51374,13.67889 -7.18015,7.83115 -22.89761,48.85314 -19.62596,53.41309 2.64264,3.68451 44.57644,9.91914 60.57159,12.17615 4.40701,-18.55344 6.81021,-37.87877 6.81021,-57.77275 0,-7.24785 -0.37977,-14.40386 -0.98523,-21.49538 z"
     id="path72"
     inkscape:connector-curvature="0" /><g
     id="g78"
     transform="matrix(0.98129779,0,0,0.97706291,5.140539,5.8016605)"><path
       style="fill:#96beb4"
       d="m 449.154,305.16 c 12.777,3.644 42.828,8.116 55.905,9.969 C 509.551,296.14 512,276.361 512,256 c 0,-4.655 -0.191,-9.262 -0.457,-13.851 -12.256,-0.345 -28.183,-0.4 -28.877,8.851 -1,13.333 -1.69,28.255 -7.332,30 -8.084,2.5 -20.084,9 -26.18,24.16 z"
       id="path74"
       inkscape:connector-curvature="0" /><path
       style="fill:#96beb4"
       d="m 296.075,270.897 c -1.947,3.823 0.264,8.433 4.473,9.264 16.489,3.257 43.99,8.838 47.656,5.172 1.414,-1.414 -4.204,-47 -15.871,-47.333 -11.667,-0.333 -16.667,1.333 -20.667,5.333 -2.737,2.738 -10.785,18.127 -15.591,27.564 z"
       id="path76"
       inkscape:connector-curvature="0" /></g><path
     style="fill:#afd2c8;stroke-width:0.97917801"
     d="m 331.25818,238.34263 c -11.44881,-0.32535 -16.35529,1.30243 -20.28048,5.21068 -2.68679,2.6752 -10.58428,17.71024 -15.3004,26.93176 -1.91059,3.73532 0.25907,8.23957 4.38935,9.05152 1.04606,0.20518 2.16474,0.42208 3.33248,0.64388 0.50538,-2.32639 1.17069,-5.07682 2.01756,-7.96698 2.28936,-7.81649 10.79427,-9.11892 14.06493,-15.95836 2.75745,-5.76662 10.39097,-12.39404 17.42589,-13.76584 -1.70157,-2.50617 -3.58174,-4.08804 -5.64933,-4.14666 z"
     id="path80"
     inkscape:connector-curvature="0" /><path
     style="fill:#64c8d7;stroke-width:0.97917801"
     d="m 491.79555,343.26063 c -112.28991,-13.56261 -173.78489,-29.68415 -203.5506,-43.36304 9.48621,17.58714 0.16388,26.3807 -14.22881,40.71128 -14.45452,14.39214 92.12227,59.68488 106.79758,51.29581 2.67894,-1.53203 -8.34103,-8.79357 -3.27067,-12.37646 6.21456,-4.39189 56.42462,16.12154 79.62348,26.67968 14.40251,-19.04979 26.12117,-40.21883 34.62902,-62.94727 z"
     id="path82"
     inkscape:connector-curvature="0" /><path
     style="fill:#96beb4;stroke-width:0.97917801"
     d="m 193.54972,334.0948 c 23.55114,-15.63301 72.50711,-21.60481 54.95267,-39.08251 -4.01448,-3.99717 -14.98932,-9.40326 -30.81471,-15.30179 15.0433,7.7061 17.73205,16.92859 14.13265,24.42071 -3.59842,7.49114 -20.93403,5.53702 -31.40153,10.74769 -9.02892,4.49449 -17.00687,12.57285 -24.20567,17.58713 -5.09,3.54577 -19.67012,8.54149 -21.91532,12.70183 -13.5586,25.12517 46.23188,52.84835 114.23679,74.59777 31.67826,10.13117 69.06473,10.73596 97.72353,17.40833 6.07129,1.4138 7.99953,10.95971 13.57723,12.17127 10.63531,2.30978 20.25988,4.23556 28.43899,5.72266 9.95036,-7.54195 19.32961,-15.7952 28.03862,-24.70113 -108.97998,-17.12987 -172.76433,-22.99224 -228.37056,-50.02464 -15.58399,-7.57517 -15.164,-17.63696 -19.95272,-25.40364 -4.77598,-7.7442 -4.48258,-14.17718 5.56003,-20.84368 z"
     id="path84"
     inkscape:connector-curvature="0" /><g
     style="opacity:0.6"
     id="g88"
     transform="matrix(0.98129779,0,0,0.97706291,5.140539,5.8016605)"><path
       style="fill:#ffffff"
       d="m 340,44 c -1.259,0 -2.449,0.248 -3.589,0.607 C 332.798,39.414 326.805,36 320,36 313.195,36 307.202,39.414 303.589,44.607 302.449,44.248 301.259,44 300,44 c -6.627,0 -12,5.373 -12,12 h 64 c 0,-6.627 -5.373,-12 -12,-12 z"
       id="path86"
       inkscape:connector-curvature="0" /></g><g
     style="opacity:0.6"
     id="g92"
     transform="matrix(0.98129779,0,0,0.97706291,5.140539,5.8016605)"><path
       style="fill:#ffffff"
       d="m 160,143 h 48 c 0,-4.971 -4.029,-9 -9,-9 -0.944,0 -1.837,0.186 -2.692,0.456 C 193.599,130.561 189.104,128 184,128 c -1.043,0 -2.038,0.173 -3.02,0.376 -1.596,-1.44 -3.662,-2.376 -5.98,-2.376 -0.944,0 -1.837,0.186 -2.692,0.456 C 169.599,122.561 165.104,120 160,120 c -5.104,0 -9.599,2.561 -12.308,6.456 C 146.837,126.186 145.944,126 145,126 c -4.971,0 -9,4.029 -9,9 h 29.062 c -2.971,1.47 -5.062,4.461 -5.062,8 z"
       id="path90"
       inkscape:connector-curvature="0" /></g><g
     id="g98"
     transform="matrix(0.98129779,0,0,0.97706291,5.140539,5.8016605)"><path
       style="fill:#ffffff"
       d="m 220.645,113.906 c 0,-10.015 8.119,-18.134 18.134,-18.134 1.512,0 2.957,0.239 4.361,0.588 4.732,-5.11 11.441,-8.359 18.955,-8.359 C 276.402,88 288,99.598 288,113.906 Z"
       id="path94"
       inkscape:connector-curvature="0" /><path
       style="fill:#ffffff"
       d="M 63.955,86.814 H 192 c 0,-14.912 -12.088,-27 -27,-27 -2.833,0 -5.51,0.558 -8.076,1.367 C 148.796,49.497 135.312,41.814 120,41.814 c -1.561,0 -3.088,0.132 -4.607,0.288 C 96.305,54.675 79.016,69.731 63.955,86.814 Z"
       id="path96"
       inkscape:connector-curvature="0" /></g><g
     id="g100" /><g
     id="g102" /><g
     id="g104" /><g
     id="g106" /><g
     id="g108" /><g
     id="g110" /><g
     id="g112" /><g
     id="g114" /><g
     id="g116" /><g
     id="g118" /><g
     id="g120" /><g
     id="g122" /><g
     id="g124" /><g
     id="g126" /><g
     id="g128" /><text
     xml:space="preserve"
     style="font-style:normal;font-weight:normal;font-size:239.43888855px;line-height:149.64932251px;font-family:sans-serif;letter-spacing:0px;word-spacing:0px;fill:#00e62d;fill-opacity:1;stroke:#000024;stroke-width:3;stroke-miterlimit:4;stroke-dasharray:none;stroke-opacity:1"
     x="9.0657902"
     y="486.94836"
     id="text4630"
     transform="scale(1.0007797,0.9992209)"><tspan
       sodipodi:role="line"
       id="tspan4628"
       x="9.0657902"
       y="486.94836"
       style="font-style:normal;font-variant:normal;font-weight:bold;font-stretch:normal;line-height:299.29864502px;font-family:sans-serif;-inkscape-font-specification:'sans-serif Bold';fill:#00e62d;fill-opacity:1;stroke:#000024;stroke-width:3;stroke-miterlimit:4;stroke-dasharray:none;stroke-opacity:1">+</tspan></text>
</svg>