<?xml version="1.0" encoding="UTF-8" standalone="no"?>
<!-- Generator: Adobe Illustrator 19.0.0, SVG Export Plug-In . SVG Version: 6.00 Build 0)  -->

<svg
   xmlns:dc="http://purl.org/dc/elements/1.1/"
   xmlns:cc="http://creativecommons.org/ns#"
   xmlns:rdf="http://www.w3.org/1999/02/22-rdf-syntax-ns#"
   xmlns:svg="http://www.w3.org/2000/svg"
   xmlns="http://www.w3.org/2000/svg"
   xmlns:sodipodi="http://sodipodi.sourceforge.net/DTD/sodipodi-0.dtd"
   xmlns:inkscape="http://www.inkscape.org/namespaces/inkscape"
   version="1.1"
   id="Layer_1"
   x="0px"
   y="0px"
   viewBox="0 0 504.123 504.123"
   style="enable-background:new 0 0 504.123 504.123;"
   xml:space="preserve"
   sodipodi:docname="gaia_add.svg"
   inkscape:version="0.92.0 r15299"><metadata
     id="metadata4602"><rdf:RDF><cc:Work
         rdf:about=""><dc:format>image/svg+xml</dc:format><dc:type
           rdf:resource="http://purl.org/dc/dcmitype/StillImage" /><dc:title></dc:title></cc:Work></rdf:RDF></metadata><defs
     id="defs4600" /><sodipodi:namedview
     pagecolor="#ffffff"
     bordercolor="#666666"
     borderopacity="1"
     objecttolerance="10"
     gridtolerance="10"
     guidetolerance="10"
     inkscape:pageopacity="0"
     inkscape:pageshadow="2"
     inkscape:window-width="1272"
     inkscape:window-height="848"
     id="namedview4598"
     showgrid="false"
     inkscape:zoom="0.66204956"
     inkscape:cx="252.06149"
     inkscape:cy="252.06149"
     inkscape:window-x="0"
     inkscape:window-y="0"
     inkscape:window-maximized="0"
     inkscape:current-layer="Layer_1" /><path
     style="fill:#7FDDD6;"
     d="M504.123,479.342V263.333c0-19.251-10.264-36.998-26.923-46.639L278.961,102.219  c-16.652-9.586-37.187-9.586-53.831,0L26.923,216.694C10.264,226.335,0,244.082,0,263.333v216.009H504.123z"
     id="path4485" /><path
     style="fill:#9AE8E1;"
     d="M225.13,102.219L26.923,216.694C10.264,226.335,0,244.082,0,263.333v216.009"
     id="path4487" /><polygon
     style="fill:#6DBFB5;"
     points="239.537,479.342 175.703,336.234 111.86,479.342 "
     id="polygon4489" /><polygon
     style="fill:#53AAA1;"
     points="171.741,479.342 100.872,320.48 30.003,479.342 "
     id="polygon4491" /><polygon
     style="fill:#70513D;"
     points="504.123,479.342 326.68,81.558 149.228,479.342 "
     id="polygon4493" /><polygon
     style="fill:#563A2B;"
     points="504.123,479.342 326.68,81.558 249.966,479.342 "
     id="polygon4495" /><rect
     x="396.524"
     y="450.623"
     style="fill:#897342;"
     width="6.987"
     height="28.719"
     id="rect4497" /><polygon
     style="fill:#74AA17;"
     points="424.369,456.704 412.767,430.702 421.077,430.702 409.309,404.315 415.886,404.315   400.014,368.727 384.142,404.315 390.727,404.315 378.951,430.702 387.261,430.702 375.658,456.704 "
     id="polygon4499" /><polygon
     style="fill:#0B8213;"
     points="424.369,456.704 412.767,430.702 421.077,430.702 409.309,404.315 415.886,404.315   400.014,368.727 390.357,404.315 396.414,404.315 386.725,430.702 395.248,430.702 384.985,456.704 "
     id="polygon4501" /><rect
     x="423.148"
     y="450.623"
     style="fill:#897342;"
     width="6.987"
     height="28.719"
     id="rect4503" /><polygon
     style="fill:#74AA17;"
     points="450.954,456.704 439.351,430.702 447.661,430.702 435.893,404.315 442.47,404.315   426.598,368.727 410.734,404.315 417.312,404.315 405.536,430.702 413.846,430.702 402.243,456.704 "
     id="polygon4505" /><polygon
     style="fill:#0B8213;"
     points="450.954,456.704 439.351,430.702 447.661,430.702 435.893,404.315 442.47,404.315   426.598,368.727 416.941,404.315 422.999,404.315 413.31,430.702 421.833,430.702 411.569,456.704 "
     id="polygon4507" /><rect
     x="449.694"
     y="450.623"
     style="fill:#897342;"
     width="6.987"
     height="28.719"
     id="rect4509" /><polygon
     style="fill:#74AA17;"
     points="477.538,456.704 465.936,430.702 474.246,430.702 462.478,404.315 469.055,404.315   453.183,368.727 437.319,404.315 443.896,404.315 432.12,430.702 440.43,430.702 428.828,456.704 "
     id="polygon4511" /><polygon
     style="fill:#0B8213;"
     points="477.538,456.704 465.936,430.702 474.246,430.702 462.478,404.315 469.055,404.315   453.183,368.727 443.526,404.315 449.583,404.315 439.895,430.702 448.417,430.702 438.154,456.704 "
     id="polygon4513" /><rect
     x="476.278"
     y="450.623"
     style="fill:#897342;"
     width="6.987"
     height="28.719"
     id="rect4515" /><polygon
     style="fill:#74AA17;"
     points="504.123,456.704 492.52,430.702 500.831,430.702 489.062,404.315 495.64,404.315   479.768,368.727 463.904,404.315 470.481,404.315 458.705,430.702 467.015,430.702 455.412,456.704 "
     id="polygon4517" /><polygon
     style="fill:#0B8213;"
     points="504.123,456.704 492.52,430.702 500.831,430.702 489.062,404.315 495.64,404.315   479.768,368.727 470.111,404.315 476.168,404.315 466.479,430.702 475.002,430.702 464.738,456.704 "
     id="polygon4519" /><polygon
     style="fill:#C6B07F;"
     points="348.404,197.971 370.137,223.5 383.173,208.187 326.68,81.558 270.186,208.195   283.215,223.5 304.939,197.971 326.68,223.5 "
     id="polygon4521" /><polygon
     style="fill:#AF9C69;"
     points="304.939,197.971 326.68,223.5 348.404,197.971 370.137,223.5 383.173,208.187 326.68,81.558   304.018,199.05 "
     id="polygon4523" /><g
     id="g4549"><path
       style="fill:#8EC426;"
       d="M51.373,479.342c-2.332-12.067-12.934-21.197-25.687-21.197S2.332,467.275,0,479.342H51.373z"
       id="path4525" /><path
       style="fill:#8EC426;"
       d="M92.538,479.342c-2.332-12.067-12.942-21.197-25.695-21.197s-23.355,9.129-25.687,21.197   L92.538,479.342L92.538,479.342z"
       id="path4527" /><path
       style="fill:#8EC426;"
       d="M133.703,479.342c-2.339-12.067-12.942-21.197-25.695-21.197s-23.355,9.129-25.702,21.197   L133.703,479.342L133.703,479.342z"
       id="path4529" /><path
       style="fill:#8EC426;"
       d="M174.852,479.342c-2.332-12.067-12.934-21.197-25.687-21.197c-12.761,0-23.363,9.129-25.695,21.197   L174.852,479.342L174.852,479.342z"
       id="path4531" /><path
       style="fill:#8EC426;"
       d="M216.017,479.342c-2.339-12.067-12.942-21.197-25.695-21.197s-23.355,9.129-25.695,21.197   L216.017,479.342L216.017,479.342z"
       id="path4533" /><path
       style="fill:#8EC426;"
       d="M257.166,479.342c-2.339-12.067-12.934-21.197-25.695-21.197c-12.753,0-23.355,9.129-25.687,21.197   L257.166,479.342L257.166,479.342z"
       id="path4535" /><path
       style="fill:#8EC426;"
       d="M298.331,479.342c-2.332-12.067-12.942-21.197-25.695-21.197c-12.753,0-23.355,9.129-25.687,21.197   L298.331,479.342L298.331,479.342z"
       id="path4537" /><path
       style="fill:#8EC426;"
       d="M339.495,479.342c-2.339-12.067-12.942-21.197-25.695-21.197s-23.355,9.129-25.695,21.197   L339.495,479.342L339.495,479.342z"
       id="path4539" /><path
       style="fill:#8EC426;"
       d="M380.644,479.342c-2.332-12.067-12.934-21.197-25.695-21.197c-12.753,0-23.355,9.129-25.687,21.197   L380.644,479.342L380.644,479.342z"
       id="path4541" /><path
       style="fill:#8EC426;"
       d="M421.809,479.342c-2.339-12.067-12.942-21.197-25.695-21.197c-12.753,0-23.355,9.129-25.687,21.197   L421.809,479.342L421.809,479.342z"
       id="path4543" /><path
       style="fill:#8EC426;"
       d="M462.958,479.342c-2.332-12.067-12.934-21.197-25.687-21.197s-23.363,9.129-25.695,21.197   L462.958,479.342L462.958,479.342z"
       id="path4545" /><path
       style="fill:#8EC426;"
       d="M504.123,479.342c-2.339-12.067-12.942-21.197-25.695-21.197c-12.753,0-23.355,9.129-25.687,21.197   L504.123,479.342L504.123,479.342z"
       id="path4547" /></g><rect
     x="336.345"
     y="429.237"
     style="fill:#897342;"
     width="12.193"
     height="50.105"
     id="rect4551" /><polygon
     style="fill:#74AA17;"
     points="384.922,439.847 364.686,394.484 379.187,394.484 358.644,348.436 370.121,348.436   342.433,286.358 314.746,348.436 326.215,348.436 305.688,394.484 320.181,394.484 299.937,439.847 "
     id="polygon4553" /><polygon
     style="fill:#0B8213;"
     points="384.922,439.847 364.686,394.484 379.187,394.484 358.644,348.436 370.121,348.436   342.433,286.358 325.585,348.436 336.14,348.436 319.228,394.484 334.108,394.484 316.203,439.847 "
     id="polygon4555" /><path
     style="fill:#F2B303;"
     d="M231.715,100.691l-38.605-66.828c-3.245-5.616-9.224-9.074-15.722-9.074h-77.162  c-6.483,0-12.477,3.458-15.714,9.074l-38.597,66.828c-3.237,5.616-3.237,12.54,0,18.156l38.597,66.836  c3.237,5.616,9.232,9.074,15.714,9.074h77.162c6.498,0,12.477-3.458,15.722-9.074l38.605-66.836  C234.945,113.231,234.945,106.307,231.715,100.691z"
     id="path4557" /><path
     style="fill:#FFC022;"
     d="M168.464,24.781h-68.238c-6.483,0-12.477,3.458-15.714,9.074l-38.597,66.828  c-3.237,5.616-3.237,12.54,0,18.156l17.306,29.972h68.23c6.491,0,12.477-3.458,15.722-9.074l38.597-66.836  c3.23-5.616,3.23-12.54,0-18.156L168.464,24.781z"
     id="path4559" /><g
     id="g4565"><path
       style="fill:#B7EDE7;"
       d="M126.33,271.494l-7.704-13.336c-0.646-1.126-1.835-1.812-3.135-1.812h-8.57l-8.066-13.974   c-0.969-1.678-2.749-2.71-4.687-2.71H71.2c-1.93,0-3.718,1.032-4.679,2.71l-5.372,9.287h-9.381c-1.063,0-2.048,0.559-2.568,1.481   l-6.309,10.925c-0.52,0.922-0.52,2.048,0,2.97l6.309,10.925c0.52,0.906,1.504,1.481,2.568,1.481h10.067l4.695,8.129   c0.961,1.67,2.749,2.702,4.679,2.702h22.969c1.252,0,2.347-0.551,3.293-1.308c0.677,0.772,1.583,1.308,2.631,1.308h15.399   c1.3,0,2.489-0.693,3.135-1.804l7.704-13.336C126.984,273.999,126.984,272.62,126.33,271.494z"
       id="path4561" /><path
       style="fill:#B7EDE7;"
       d="M157.956,255.882l3.923-6.79c0.331-0.567,0.937-0.922,1.599-0.922h4.372l4.104-7.113   c0.488-0.859,1.402-1.386,2.387-1.386h11.705c0.985,0,1.89,0.52,2.387,1.386l2.725,4.726h4.789c0.536,0,1.04,0.291,1.308,0.764   l3.206,5.561c0.276,0.48,0.276,1.048,0,1.512l-3.206,5.569c-0.268,0.465-0.772,0.748-1.308,0.748h-5.128l-2.387,4.143   c-0.488,0.851-1.402,1.378-2.387,1.378H174.34c-0.646,0-1.189-0.284-1.678-0.67c-0.339,0.394-0.811,0.67-1.339,0.67h-7.845   c-0.662,0-1.268-0.354-1.599-0.922l-3.923-6.798C157.617,257.158,157.617,256.457,157.956,255.882z"
       id="path4563" /></g><g
     id="g4567" /><g
     id="g4569" /><g
     id="g4571" /><g
     id="g4573" /><g
     id="g4575" /><g
     id="g4577" /><g
     id="g4579" /><g
     id="g4581" /><g
     id="g4583" /><g
     id="g4585" /><g
     id="g4587" /><g
     id="g4589" /><g
     id="g4591" /><g
     id="g4593" /><g
     id="g4595" /><text
     xml:space="preserve"
     style="font-style:normal;font-weight:normal;font-size:60.85519028px;line-height:38.03449249px;font-family:sans-serif;letter-spacing:0px;word-spacing:0px;fill:#00cc00;fill-opacity:1;stroke:#000000;stroke-width:11.33858255;stroke-miterlimit:4;stroke-dasharray:none;stroke-opacity:1"
     x="0.28472"
     y="438.42319"
     id="text4606"
     transform="scale(1.0211212,0.9793157)"><tspan
       sodipodi:role="line"
       id="tspan4604"
       x="0.28472"
       y="438.42319"
       style="font-size:292.10491943px;line-height:94.02127075px;fill:#00cc00;fill-opacity:1;stroke:#000000;stroke-width:11.33858255;stroke-miterlimit:4;stroke-dasharray:none;stroke-opacity:1">+</tspan></text>
</svg>